<?xml version="1.0" encoding="UTF-8" standalone="no"?>
<!-- Created with Inkscape (http://www.inkscape.org/) -->

<svg
   width="118.53334mm"
   height="118.53334mm"
   viewBox="0 0 118.53334 118.53334"
   version="1.1"
   id="svg8058"
   xml:space="preserve"
   sodipodi:docname="Website_darkmode.svg"
   inkscape:version="1.2 (dc2aedaf03, 2022-05-15)"
   xmlns:inkscape="http://www.inkscape.org/namespaces/inkscape"
   xmlns:sodipodi="http://sodipodi.sourceforge.net/DTD/sodipodi-0.dtd"
   xmlns="http://www.w3.org/2000/svg"
   xmlns:svg="http://www.w3.org/2000/svg"><sodipodi:namedview
     id="namedview8060"
     pagecolor="#ffffff"
     bordercolor="#000000"
     borderopacity="0.25"
     inkscape:showpageshadow="2"
     inkscape:pageopacity="0.0"
     inkscape:pagecheckerboard="0"
     inkscape:deskcolor="#d1d1d1"
     inkscape:document-units="mm"
     showgrid="false"
     inkscape:zoom="1.4503086"
     inkscape:cx="397.15685"
     inkscape:cy="205.47351"
     inkscape:window-width="1920"
     inkscape:window-height="1001"
     inkscape:window-x="-9"
     inkscape:window-y="339"
     inkscape:window-maximized="1"
     inkscape:current-layer="layer1" /><defs
     id="defs8055" /><g
     inkscape:label="Layer 1"
     inkscape:groupmode="layer"
     id="layer1"
     transform="translate(-44.807291,-66.776016)"><path
       id="path11562"
       style="stroke-width:0.264583"
       d="M 57.507291 66.776016 C 50.495859 66.776016 44.807291 72.464585 44.807291 79.476016 L 44.807291 172.60935 C 44.807291 179.62076 50.495859 185.30935 57.507291 185.30935 L 150.64062 185.30935 C 157.65208 185.30935 163.34062 179.62076 163.34062 172.60935 L 163.34062 79.476016 C 163.34062 72.464585 157.65208 66.776016 150.64062 66.776016 L 57.507291 66.776016 z M 124.38331 85.254475 C 129.63539 85.254475 134.88732 87.244789 138.86873 91.226203 C 146.88803 99.245505 146.88822 112.23492 138.86873 120.19756 L 132.48721 126.57908 L 121.92661 137.13968 C 121.41835 137.7046 120.79688 138.21253 120.23214 138.66413 C 114.35885 143.29518 106.56586 144.31203 99.845275 141.65775 C 97.360421 140.69769 94.988319 139.17293 92.955256 137.13968 L 101.70873 128.38621 C 104.87145 131.54875 110.0106 131.54875 113.17314 128.38621 L 119.89366 121.66569 L 130.11526 111.44409 C 133.2778 108.28155 133.2778 103.14222 130.11526 99.979674 C 126.95272 96.817132 121.81339 96.817132 118.65085 99.979674 L 110.51904 108.11199 C 105.43639 105.74009 99.619428 105.3449 94.254402 106.86969 L 109.89789 91.226203 C 113.87931 87.244789 119.13123 85.254475 124.38331 85.254475 z M 101.03745 108.97551 C 103.49366 109.01828 105.94395 109.50109 108.26027 110.42762 C 110.74511 111.38766 113.11723 112.91262 115.15028 114.94569 L 106.39681 123.69916 C 103.2341 120.53661 98.094935 120.53661 94.932397 123.69916 L 77.989762 140.64127 C 74.827223 143.804 74.827223 148.94264 77.989762 152.10517 C 81.1523 155.2679 86.29164 155.2679 89.454178 152.10517 L 97.247501 144.31185 C 103.91142 146.96613 105.71889 147.19215 113.51266 145.38517 L 98.207649 160.85916 C 90.244829 168.82198 77.199628 168.82198 69.236808 160.85916 C 61.273988 152.89616 61.273988 139.85063 69.236808 131.8878 L 86.178926 114.94569 C 86.404822 114.71979 86.687207 114.43726 86.969575 114.21136 C 90.675676 110.89353 95.308056 109.14202 99.984802 108.98429 C 100.33556 108.97246 100.68656 108.9694 101.03745 108.97551 z " /><g
       id="g450"
       transform="matrix(0.19693102,0,0,0.19693102,60.527946,82.496607)"><g
         id="g394">
	<g
   id="g392"
   transform="matrix(0.9371586,0,0,0.9371586,13.895692,13.895711)">
		
		
	</g>
</g></g><path
       style="fill:#d6e2f5;stroke:#d6e2f5;stroke-width:2.60602;fill-opacity:1;stroke-opacity:1"
       d="M 41.007046,447.11058 C 29.913078,445.46325 18.981971,439.18864 11.385337,430.10731 7.3448451,425.27713 4.9618314,420.99854 2.6339245,414.39456 L 0.68950843,408.8785 V 224.09024 39.30198 L 2.5680135,33.785913 C 5.191878,26.081162 8.8418748,20.197215 14.519544,14.519544 20.197215,8.8418748 26.081162,5.191878 33.785913,2.5680135 L 39.30198,0.68950843 h 184.4435 c 176.9684,0 184.61118,0.0512898 188.58056,1.26554097 9.71195,2.9709274 18.36259,8.6085076 24.3142,15.8454556 3.7442,4.552805 7.95823,12.642161 9.58455,18.398687 1.21413,4.297586 1.26618,12.006459 1.26618,187.546288 0,205.8739 0.5314,186.00549 -5.29275,197.88892 -4.06067,8.28528 -12.28385,16.50713 -20.56382,20.56049 -11.93976,5.84497 8.39948,5.28427 -195.47564,5.3887 -99.73739,0.0511 -183.055663,-0.16177 -185.151714,-0.47301 z M 161.21901,377.16379 c 12.40327,-2.16295 24.67174,-7.78155 34.80016,-15.93746 5.4535,-4.39144 63.999,-63.51503 63.44379,-64.07025 -0.16954,-0.16953 -4.00899,0.48601 -8.53212,1.45677 -9.92098,2.12923 -22.56714,2.88927 -28.71599,1.72585 -4.92598,-0.93204 -10.85821,-2.75122 -18.70346,-5.73561 l -5.40965,-2.05788 -16.68103,16.59168 c -14.54005,14.46218 -17.26154,16.86334 -21.20415,18.70831 -11.99748,5.6143 -23.92136,3.77975 -33.58517,-5.16723 -6.87614,-6.36609 -10.2101,-14.63308 -9.57471,-23.74176 0.40911,-5.8649 1.75922,-9.8245 5.06639,-14.85874 1.24565,-1.89615 17.71658,-18.85201 36.60205,-37.6797 29.21531,-29.12591 34.95845,-34.54187 38.50182,-36.30837 10.81798,-5.39322 22.64684,-4.39976 31.96341,2.68447 l 3.72109,2.82949 16.82769,-16.78657 16.82769,-16.78657 -3.65582,-3.27884 c -10.36434,-9.29556 -24.29708,-15.99296 -38.47601,-18.49522 -6.36966,-1.1241 -20.85907,-1.11271 -26.89083,0.0212 -10.26981,1.93052 -21.36175,6.39663 -29.79454,11.99662 -6.8464,4.54651 -14.51787,11.82523 -48.15989,45.69425 -35.412059,35.651 -37.907369,38.58986 -43.471406,51.1986 -12.614353,28.58559 -6.880232,62.36368 14.440037,85.06217 10.755119,11.45036 24.774959,19.27178 40.448239,22.56536 7.80866,1.6409 21.93115,1.81362 30.21241,0.36948 z m 89.10984,-89.66456 c 11.21617,-1.95593 22.68999,-6.69125 31.94898,-13.18554 5.22802,-3.66695 72.47932,-70.30203 78.70742,-77.98622 13.08746,-16.14724 18.87709,-35.1449 17.10335,-56.12166 -2.91175,-34.43523 -28.29855,-62.610166 -62.42338,-69.279105 -8.08252,-1.579547 -22.71184,-1.551677 -30.20873,0.05757 -11.50045,2.468599 -22.39539,7.2558 -31.0326,13.635622 -5.05465,3.733578 -68.49985,66.369083 -67.86753,67.001393 0.2005,0.2005 1.98549,-0.063 3.96662,-0.58566 15.97226,-4.2134 37.55464,-2.74234 52.87349,3.60386 l 4.82656,1.99952 17.23771,-17.04444 c 19.01311,-18.79993 21.50506,-20.60204 30.65906,-22.17178 12.69995,-2.1778 25.61273,4.50283 31.42172,16.25652 4.35342,8.80856 4.43789,17.58249 0.25641,26.63142 -1.89901,4.10953 -5.0322,7.44296 -37.72018,40.13095 -32.7964,32.7964 -36.01321,35.81858 -40.19868,37.7666 -10.95121,5.09697 -21.94097,4.04151 -31.13849,-2.99054 -1.80462,-1.37977 -3.51358,-2.50865 -3.79768,-2.50865 -0.2841,0 -7.94754,7.43584 -17.02986,16.52407 l -16.5133,16.52406 1.69426,1.80544 c 8.11606,8.64863 25.38764,17.42115 39.23892,19.93009 7.13033,1.29155 20.60893,1.29466 27.99593,0.006 z"
       id="path577"
       transform="matrix(0.26458333,0,0,0.26458333,44.807291,66.776016)" /></g></svg>
