<?xml version="1.0" encoding="UTF-8" standalone="no"?>
<!-- Created with Inkscape (http://www.inkscape.org/) -->

<svg
   width="118.53334mm"
   height="118.53334mm"
   viewBox="0 0 118.53334 118.53334"
   version="1.1"
   id="svg8058"
   xml:space="preserve"
   sodipodi:docname="Github_darkmode.svg"
   inkscape:version="1.2 (dc2aedaf03, 2022-05-15)"
   xmlns:inkscape="http://www.inkscape.org/namespaces/inkscape"
   xmlns:sodipodi="http://sodipodi.sourceforge.net/DTD/sodipodi-0.dtd"
   xmlns="http://www.w3.org/2000/svg"
   xmlns:svg="http://www.w3.org/2000/svg"><sodipodi:namedview
     id="namedview8060"
     pagecolor="#ffffff"
     bordercolor="#000000"
     borderopacity="0.25"
     inkscape:showpageshadow="2"
     inkscape:pageopacity="0.0"
     inkscape:pagecheckerboard="0"
     inkscape:deskcolor="#d1d1d1"
     inkscape:document-units="mm"
     showgrid="false"
     inkscape:zoom="1.4503086"
     inkscape:cx="252.70483"
     inkscape:cy="195.13088"
     inkscape:window-width="1920"
     inkscape:window-height="1001"
     inkscape:window-x="-9"
     inkscape:window-y="339"
     inkscape:window-maximized="1"
     inkscape:current-layer="layer1" /><defs
     id="defs8055" /><g
     inkscape:label="Layer 1"
     inkscape:groupmode="layer"
     id="layer1"
     transform="translate(-44.807291,-66.776016)"><path
       d="M 150.64063,66.776016 H 57.507291 c -7.011458,0 -12.7,5.688541 -12.7,12.7 v 93.133344 c 0,7.01145 5.688542,12.7 12.7,12.7 h 93.133339 c 7.01146,0 12.7,-5.68855 12.7,-12.7 V 79.476016 c 0,-7.011459 -5.68854,-12.7 -12.7,-12.7 z M 118.17625,168.29665 c -2.2225,0.39687 -3.04271,-0.97896 -3.04271,-2.11667 0,-1.42875 0.0529,-8.73125 0.0529,-14.63146 0,-4.1275 -1.37583,-6.74687 -2.98979,-8.12271 9.78958,-1.08479 20.10833,-2.43416 20.10833,-19.34104 0,-4.81541 -1.71979,-7.22312 -4.52437,-10.31875 0.44979,-1.13771 1.95791,-5.82083 -0.44979,-11.90625 -3.67771,-1.13771 -12.09146,4.73604 -12.09146,4.73604 -3.4925,-0.97895 -7.27604,-1.48166 -11.00667,-1.48166 -3.73062,0 -7.514169,0.50271 -11.006669,1.48166 0,0 -8.41375,-5.87375 -12.091458,-4.73604 -2.407709,6.05896 -0.926042,10.74209 -0.449792,11.90625 -2.804583,3.09563 -4.1275,5.50334 -4.1275,10.31875 0,16.8275 9.868958,18.25625 19.658542,19.34104 -1.27,1.13771 -2.407709,3.09563 -2.804584,5.90021 -2.513541,1.13771 -8.942916,3.09563 -12.779375,-3.67771 -2.407708,-4.18041 -6.746875,-4.52437 -6.746875,-4.52437 -4.28625,-0.0529 -0.291041,2.69875 -0.291041,2.69875 2.8575,1.32292 4.868333,6.40292 4.868333,6.40292 2.566458,7.85812 14.843125,5.21229 14.843125,5.21229 0,3.67771 0.05292,9.65729 0.05292,10.74208 0,1.13771 -0.79375,2.51354 -3.042709,2.11667 -17.4625,-5.84729 -29.68625,-22.46313 -29.68625,-41.88354 0,-24.28875 18.57375,-42.730219 42.862503,-42.730219 24.28875,0 43.97375,18.441469 43.97375,42.730219 0.0265,19.42041 -11.82688,36.0627 -29.28938,41.88354 z M 92.220624,152.13061 c -0.502708,0.10583 -0.978958,-0.10584 -1.031875,-0.4498 -0.05292,-0.39687 0.291042,-0.74083 0.79375,-0.84666 0.502709,-0.0529 0.978959,0.15875 1.031875,0.50271 0.07937,0.34395 -0.264583,0.68791 -0.79375,0.79375 z m -2.513541,-0.23813 c 0,0.34396 -0.396875,0.635 -0.926042,0.635 -0.582083,0.0529 -0.978958,-0.23812 -0.978958,-0.635 0,-0.34396 0.396875,-0.635 0.926041,-0.635 0.502709,-0.0529 0.978959,0.23813 0.978959,0.635 z m -3.624792,-0.29104 c -0.105833,0.34396 -0.635,0.50271 -1.084792,0.34396 -0.502708,-0.10584 -0.846666,-0.50271 -0.740833,-0.84667 0.105833,-0.34396 0.635,-0.50271 1.084792,-0.39687 0.529166,0.15875 0.873125,0.55562 0.740833,0.89958 z m -3.254375,-1.42875 c -0.238125,0.29104 -0.740833,0.23812 -1.137708,-0.15875 -0.396875,-0.34396 -0.502709,-0.84667 -0.238125,-1.08479 0.238125,-0.29104 0.740833,-0.23813 1.137708,0.15875 0.343958,0.34396 0.47625,0.87312 0.238125,1.08479 z m -2.407708,-2.40771 c -0.238125,0.15875 -0.687917,0 -0.978959,-0.39687 -0.291041,-0.39688 -0.291041,-0.84667 0,-1.03188 0.291042,-0.23812 0.740834,-0.0529 0.978959,0.34396 0.291041,0.39687 0.291041,0.87312 0,1.08479 z m -1.719792,-2.56646 c -0.238125,0.23813 -0.635,0.10584 -0.926042,-0.15875 -0.291041,-0.34396 -0.343958,-0.74083 -0.105833,-0.92604 0.238125,-0.23812 0.635,-0.10583 0.926042,0.15875 0.291041,0.34396 0.343958,0.74083 0.105833,0.92604 z m -1.772708,-1.95791 c -0.105834,0.23812 -0.449792,0.29104 -0.740834,0.10583 -0.343958,-0.15875 -0.502708,-0.44979 -0.396875,-0.68792 0.105834,-0.15875 0.396875,-0.23812 0.740834,-0.10583 0.343958,0.18521 0.502708,0.47625 0.396875,0.68792 z"
       id="path11562"
       style="stroke-width:0.264583" /><path
       style="fill:#d6e2f5;fill-opacity:1;stroke:none;stroke-width:2.60602;stroke-linecap:round;stroke-linejoin:bevel;stroke-miterlimit:5.4;paint-order:fill markers stroke"
       d="M 41.007045,447.11057 C 29.913077,445.46324 18.981971,439.18863 11.385337,430.1073 7.3448449,425.27712 4.9618312,420.99853 2.6339245,414.39455 L 0.68950841,408.87848 V 224.09023 39.301979 L 2.5680134,33.785912 C 5.1918778,26.081162 8.8418745,20.197214 14.519544,14.519544 20.197214,8.8418745 26.081162,5.1918778 33.785912,2.5680134 L 39.301979,0.68950841 H 223.74548 c 176.96839,0 184.61116,0.0512898 188.58055,1.26554099 9.71195,2.9709272 18.36258,8.6085066 24.3142,15.8454546 3.7442,4.552806 7.95823,12.642161 9.58455,18.398687 1.21413,4.297586 1.26618,12.006458 1.26618,187.546289 0,205.87389 0.5314,186.00547 -5.29275,197.88891 -4.06067,8.28528 -12.28385,16.50713 -20.56382,20.56049 -11.93976,5.84497 8.39948,5.28427 -195.47563,5.3887 -99.73739,0.0511 -183.055664,-0.16177 -185.151715,-0.47301 z M 179.37073,383.2737 c 4.2902,-2.03583 4.38326,-2.60575 4.38326,-26.844 v -21.83413 l -1.89615,0.45411 c -1.04288,0.24976 -6.57025,0.636 -12.28304,0.8583 -12.3704,0.48137 -19.241,-0.6019 -27.04064,-4.26343 -5.38749,-2.52914 -10.67776,-7.29253 -12.67565,-11.41322 -0.63145,-1.30237 -2.71455,-5.62726 -4.6291,-9.61086 -3.86328,-8.0383 -8.49788,-14.27095 -13.18922,-17.73696 -6.34542,-4.68808 -8.27211,-6.50915 -8.70299,-8.2259 -0.58882,-2.34603 0.54192,-2.96982 5.40689,-2.98287 6.91564,-0.0186 16.17392,4.44673 21.54383,10.39058 1.36528,1.5112 3.89857,4.95712 5.62953,7.65759 9.96904,15.55271 24.66966,20.54304 42.65826,14.48095 5.47491,-1.84503 5.51197,-1.87367 5.97283,-4.61459 0.54226,-3.22508 3.09426,-10.28079 4.61371,-12.7559 0.58202,-0.94808 2.07838,-3.00842 3.32524,-4.57855 l 2.26701,-2.85479 -7.05165,-0.8348 c -9.92066,-1.17446 -20.45474,-3.24531 -26.98597,-5.30507 -26.51964,-8.36353 -38.89777,-27.46013 -40.14074,-61.92796 -0.66945,-18.56379 2.61325,-28.8949 12.8916,-40.57172 2.21376,-2.51497 2.6481,-3.4187 2.11859,-4.40811 -1.34373,-2.51077 -2.85582,-12.00994 -2.85076,-17.90874 0.006,-7.43732 0.87851,-13.04203 3.1466,-20.22182 1.59153,-5.03807 1.88882,-5.49721 3.60091,-5.5613 8.91394,-0.33369 21.86011,4.63144 37.02215,14.19878 l 6.19665,3.91013 8.28303,-1.76884 c 25.15106,-5.37101 46.79954,-4.94795 73.9066,1.44429 1.04046,0.24536 3.53353,-0.92201 8.14642,-3.81452 13.31155,-8.34701 26.81185,-13.91392 33.94935,-13.99917 4.71212,-0.0563 5.06046,0.32011 6.99331,7.55655 3.14082,11.75893 3.29315,24.08825 0.41714,33.7628 l -1.08267,3.64194 4.84263,6.01117 c 9.22605,11.45234 12.0245,19.55241 11.96272,34.62577 -0.14079,34.34461 -12.1582,54.67793 -37.71424,63.81201 -7.55475,2.70017 -16.39162,4.61266 -28.66916,6.20463 -4.74035,0.61466 -8.73329,1.23203 -8.87319,1.37193 -0.13989,0.1399 0.81474,1.50338 2.12144,3.02995 2.86528,3.34744 5.50603,8.5905 7.14363,14.18331 1.05653,3.60831 1.26312,8.55187 1.61635,38.68018 0.44426,37.89137 0.22203,36.09346 4.69229,37.96206 3.5465,1.48246 6.01711,1.11844 14.24547,-2.09891 20.27223,-7.92658 37.11087,-18.73717 52.74235,-33.86115 9.77196,-9.4547 15.1709,-15.90007 22.4542,-26.80634 C 390.1698,275.3494 396.81545,215.3899 377.04582,165.82677 371.25393,151.30632 365.51295,141.13095 355.92987,128.40068 330.70865,94.896552 291.87529,72.285269 247.87827,65.486077 237.72273,63.916665 215.5187,63.387125 204.62728,64.454594 148.87839,69.918545 101.14582,102.04018 77.042429,150.31283 c -11.929425,23.89145 -17.399952,47.52055 -17.399952,75.15642 0,57.00614 27.562919,108.95854 74.298663,140.04302 12.47083,8.29449 35.19225,18.8158 40.74504,18.86726 1.26999,0.0118 3.37804,-0.48585 4.68455,-1.10583 z m -10.7406,-59.57376 c 2.57654,-1.37892 1.18479,-4.8023 -1.95233,-4.8023 -2.53428,0 -4.29857,1.25987 -4.29857,3.06959 0,2.33986 3.37064,3.27417 6.2509,1.73271 z m 12.64428,-1.56577 c 1.77464,-1.29765 1.21521,-4.20577 -0.86571,-4.50032 -3.95345,-0.5596 -6.85533,2.04526 -4.90135,4.39967 1.03347,1.24525 4.12786,1.29926 5.76706,0.10065 z m -25.23181,-1.98352 c 0.25008,-2.16471 -1.66898,-3.52958 -4.48768,-3.19167 -4.71094,0.56475 -2.94252,5.64807 1.82546,5.24727 2.08081,-0.17491 2.48061,-0.48362 2.66222,-2.0556 z m -11.93534,-6.34991 c 0,-2.60191 -3.22876,-5.24875 -5.02378,-4.11836 -1.80037,1.13374 -1.82306,2.94995 -0.0603,4.82632 2.26963,2.41591 5.08407,2.02399 5.08407,-0.70796 z m -8.61886,-9.25099 c 0,-2.72103 -1.44794,-4.44964 -3.48617,-4.16194 -3.52565,0.49765 -1.80891,6.09868 1.86927,6.09868 1.31244,0 1.6169,-0.36469 1.6169,-1.93674 z m -6.7147,-8.57827 c 0.54621,-1.43562 -0.68997,-3.81463 -2.23734,-4.30576 -1.57724,-0.50059 -3.45911,0.6419 -3.45911,2.10004 0,2.3703 4.91042,4.27166 5.69645,2.20572 z m -7.07547,-7.27431 c 0,-1.69929 -1.3391,-2.89594 -3.24069,-2.89594 -1.75365,0 -2.18516,1.88294 -0.75846,3.30964 1.31173,1.31173 3.99915,1.03372 3.99915,-0.4137 z"
       id="path12660"
       transform="matrix(0.26458333,0,0,0.26458333,44.807291,66.776016)" /></g></svg>
