<?xml version="1.0" encoding="UTF-8" standalone="no"?>
<!-- Created with Inkscape (http://www.inkscape.org/) -->

<svg
   width="118.53334mm"
   height="118.53334mm"
   viewBox="0 0 118.53334 118.53334"
   version="1.1"
   id="svg8058"
   xml:space="preserve"
   sodipodi:docname="Website_lightmode.svg"
   inkscape:version="1.2 (dc2aedaf03, 2022-05-15)"
   xmlns:inkscape="http://www.inkscape.org/namespaces/inkscape"
   xmlns:sodipodi="http://sodipodi.sourceforge.net/DTD/sodipodi-0.dtd"
   xmlns="http://www.w3.org/2000/svg"
   xmlns:svg="http://www.w3.org/2000/svg"><sodipodi:namedview
     id="namedview8060"
     pagecolor="#ffffff"
     bordercolor="#000000"
     borderopacity="0.25"
     inkscape:showpageshadow="2"
     inkscape:pageopacity="0.0"
     inkscape:pagecheckerboard="0"
     inkscape:deskcolor="#d1d1d1"
     inkscape:document-units="mm"
     showgrid="false"
     inkscape:zoom="1.4503086"
     inkscape:cx="397.15685"
     inkscape:cy="205.81827"
     inkscape:window-width="1920"
     inkscape:window-height="1001"
     inkscape:window-x="-9"
     inkscape:window-y="339"
     inkscape:window-maximized="1"
     inkscape:current-layer="layer1" /><defs
     id="defs8055" /><g
     inkscape:label="Layer 1"
     inkscape:groupmode="layer"
     id="layer1"
     transform="translate(-44.807291,-66.776016)"><path
       id="path11562"
       style="stroke-width:0.264583"
       d="M 57.507291 66.776016 C 50.495859 66.776016 44.807291 72.464585 44.807291 79.476016 L 44.807291 172.60935 C 44.807291 179.62076 50.495859 185.30935 57.507291 185.30935 L 150.64062 185.30935 C 157.65208 185.30935 163.34062 179.62076 163.34062 172.60935 L 163.34062 79.476016 C 163.34062 72.464585 157.65208 66.776016 150.64062 66.776016 L 57.507291 66.776016 z M 124.38331 85.254475 C 129.63539 85.254475 134.88732 87.244789 138.86873 91.226203 C 146.88803 99.245505 146.88822 112.23492 138.86873 120.19756 L 132.48721 126.57908 L 121.92661 137.13968 C 121.41835 137.7046 120.79688 138.21253 120.23214 138.66413 C 114.35885 143.29518 106.56586 144.31203 99.845275 141.65775 C 97.360421 140.69769 94.988319 139.17293 92.955256 137.13968 L 101.70873 128.38621 C 104.87145 131.54875 110.0106 131.54875 113.17314 128.38621 L 119.89366 121.66569 L 130.11526 111.44409 C 133.2778 108.28155 133.2778 103.14222 130.11526 99.979674 C 126.95272 96.817132 121.81339 96.817132 118.65085 99.979674 L 110.51904 108.11199 C 105.43639 105.74009 99.619428 105.3449 94.254402 106.86969 L 109.89789 91.226203 C 113.87931 87.244789 119.13123 85.254475 124.38331 85.254475 z M 101.03745 108.97551 C 103.49366 109.01828 105.94395 109.50109 108.26027 110.42762 C 110.74511 111.38766 113.11723 112.91262 115.15028 114.94569 L 106.39681 123.69916 C 103.2341 120.53661 98.094935 120.53661 94.932397 123.69916 L 77.989762 140.64127 C 74.827223 143.804 74.827223 148.94264 77.989762 152.10517 C 81.1523 155.2679 86.29164 155.2679 89.454178 152.10517 L 97.247501 144.31185 C 103.91142 146.96613 105.71889 147.19215 113.51266 145.38517 L 98.207649 160.85916 C 90.244829 168.82198 77.199628 168.82198 69.236808 160.85916 C 61.273988 152.89616 61.273988 139.85063 69.236808 131.8878 L 86.178926 114.94569 C 86.404822 114.71979 86.687207 114.43726 86.969575 114.21136 C 90.675676 110.89353 95.308056 109.14202 99.984802 108.98429 C 100.33556 108.97246 100.68656 108.9694 101.03745 108.97551 z " /><g
       id="g450"
       transform="matrix(0.19693102,0,0,0.19693102,60.527946,82.496607)"><g
         id="g394">
	<g
   id="g392"
   transform="matrix(0.9371586,0,0,0.9371586,13.895692,13.895711)">
		
		
	</g>
</g></g></g></svg>
